<?xml version="1.0" encoding="UTF-8"?>
<svg id="_레이어_1" data-name="레이어_1" xmlns="http://www.w3.org/2000/svg" version="1.1" viewBox="0 0 841.89 595.28">
  <!-- Generator: Adobe Illustrator 30.2.1, SVG Export Plug-In . SVG Version: 2.1.1 Build 1)  -->
  <defs>
    <style>
      .st0 {
        fill: #182649;
      }
    </style>
  </defs>
  <g>
    <path class="st0" d="M234.16,203.94H69.96v-24.11h137.81v-82.42h-72.98v64.83h-26.39v-88.94h111.09c9.45,0,14.66,5.22,14.66,14.66v115.98ZM224.06,293.86c0-36.49,28.02-62.55,67.11-62.55h60.27v24.11h-60.27c-23.45,0-40.39,15.96-40.39,38.44s16.94,38.44,40.39,38.44,40.72-15.96,40.72-38.44c0-8.15-2.61-15.96-5.86-20.85h26.39c3.58,5.21,6.19,10.75,6.19,20.85,0,36.48-28.02,62.55-67.44,62.55s-67.11-26.07-67.11-62.55ZM386.62,203.94c-26.06-1.63-43.98-15.63-50.17-42.68h-80.47v-24.11h78.19v-38.44h-78.19v-24.11h78.19V0h26.71v133.58c0,25.73,8.14,42.35,25.74,46.26v24.11Z"/>
    <path class="st0" d="M643.98,203.94h-110.11v69.72h-26.71v-69.72h-121.19v-24.11h258.02v24.11ZM463.17,316.01h129.01v24.11h-141.07c-9.45,0-14.66-5.22-14.66-14.66v-84.05h26.71v74.6ZM561.88,69.07h26.71v75.58h-132.59c-9.45,0-14.66-5.21-14.66-14.66V27.37h147.25v24.11h-120.54v69.39h93.83v-51.8Z"/>
  </g>
  <g>
    <path class="st0" d="M254.91,569.64h104.58v24.11H101.46v-24.11h69.39v-85.68h26.71v85.68h30.62v-85.68h26.71v85.68ZM303.45,529.89h-26.71v-95.13h-121.52v-24.11h133.57c9.45,0,14.66,5.22,14.66,14.66v104.58Z"/>
    <path class="st0" d="M358.82,593.75v-24.11h99.37v-38.76c-28.67-5.22-48.87-27.37-48.87-55.71,0-14.33,4.89-27.04,13.68-36.81h-39.42v-24.11h74.28v-49.85h26.72v49.85h72.98v24.11h-86.34c-20.14,0-35.09,14.57-35.18,34.35-.09,20.24,15.13,35.13,35.37,35.04,20.1-.09,35-14.72,35-34.86,0-6.18-1.63-12.7-3.91-16.94h25.74c2.93,4.89,4.89,11.4,4.89,19.22,0,28.34-19.87,50.17-48.22,55.38v39.09h77.54c14.34-1.76,19.25-5.6,22.2-12.94,1.88-4.69,2.56-9.78,2.56-14.83v-152.06h26.71v134.55c0,28.02-2.24,40.23-10.1,52.13-5.54,10.75-17.59,17.26-36.16,17.26h-208.83Z"/>
  </g>
  <g>
    <path class="st0" d="M753.31,562.42l-45.03,12.54v.47l45.03.37v17.13l-69.46-4.31v-19.19l48.21-14.7v-.47l-48.21-14.79v-19.19l69.46-4.31v17.13l-45.03.38v.47l45.03,12.54v15.91Z"/>
    <path class="st0" d="M741.42,493.15l-39.6,20.13v-18.54l21.16-10.11-21.16-8.8v-18.16l65.53,29.11-4.59,16.29-21.34-9.92Z"/>
    <path class="st0" d="M701.82,406.93h51.49v16.38h-3c1.97,2.34,3.84,6.46,4.21,10.95v1.22c0,12.54-7.96,18.07-20.31,18.07h-32.39v-16.38h25.37c9.46,0,11.61-2.81,11.51-6.55-.09-3.28-1.03-5.34-3.18-7.3h-33.7v-16.38Z"/>
    <path class="st0" d="M753.31,399.35h-51.49v-16.38h3c-1.97-2.34-3.84-7.02-4.21-11.51v-1.5c0-12.54,8.43-18.35,21.25-18.44h31.45v16.38h-24.43c-10.77,0-12.64,2.62-12.45,7.21.19,3.56,1.12,5.15,3.18,7.86h33.7v16.38Z"/>
    <path class="st0" d="M744.41,291.42c9.64,0,16.1,1.31,21.44,8.8,3.93,5.8,4.77,14.14,4.4,22.47-.28,5.71-1.97,13.11-5.99,20.03l-12.73-6.74c3.65-6.46,5.62-12.54,4.87-19.75-.75-6.27-4.4-8.42-7.77-8.42h-2.25c2.62,2.43,4.4,7.77,4.4,13.2,0,11.05-7.4,24.34-24.25,23.78-18.54-.66-26.59-11.79-25.93-24.71.19-5.43,2.15-9.55,4.87-12.26h-3.65v-16.38h42.59ZM736.92,318.47c-.09-6.74-4.49-10.39-10.3-10.39-8.14,0-11.89,4.77-12.17,10.39-.28,4.59,2.71,10.02,11.33,10.39,7.68.38,11.23-4.59,11.14-10.39Z"/>
    <path class="st0" d="M753.31,283.84h-51.49v-15.82h3.18c-2.9-4.12-4.03-7.86-4.49-12.45v-1.03c0-6.37,2.25-10.67,5.9-13.2-3.28-4.31-5.9-10.58-5.9-14.32v-1.59c0-11.98,7.4-17.97,19.94-17.97h32.86v15.54h-24.43c-10.3,0-12.64,2.71-12.45,7.11.09,3.18.94,4.96,2.81,7.11.84-.09,1.78-.09,2.62-.09h31.45v15.45h-24.43c-9.64,0-12.64,2.71-12.45,7.21.09,3.65,1.31,5.62,3.46,8.24h33.42v15.82Z"/>
    <path class="st0" d="M754.52,173.38c0,16.38-10.77,27.99-27.05,27.99s-27.05-12.64-27.05-27.99,10.11-27.99,27.05-27.99,27.05,11.61,27.05,27.99ZM739.73,173.57c0-6.27-4.02-11.98-12.26-11.98s-12.26,5.71-12.26,11.98,4.4,11.61,12.26,11.61,12.26-5.52,12.26-11.61Z"/>
    <path class="st0" d="M754.52,112.82c0,16.38-10.77,27.99-27.05,27.99s-27.05-12.64-27.05-27.99,10.11-27.99,27.05-27.99,27.05,11.61,27.05,27.99ZM739.73,113c0-6.27-4.02-11.98-12.26-11.98s-12.26,5.71-12.26,11.98,4.4,11.61,12.26,11.61,12.26-5.52,12.26-11.61Z"/>
    <path class="st0" d="M753.31,78.74h-51.49v-16.38h3c-1.97-2.34-3.84-7.02-4.21-11.51v-1.5c0-12.54,8.43-18.35,21.25-18.44h31.45v16.38h-24.43c-10.77,0-12.64,2.62-12.45,7.21.19,3.56,1.12,5.15,3.18,7.86h33.7v16.38Z"/>
  </g>
  <path class="st0" d="M587.29,316.06h24.74c1.07,0,1.94.87,1.94,1.94v111.22h-26.67v-113.15h0Z"/>
</svg>