<?xml version="1.0" encoding="UTF-8"?>
<svg id="_레이어_1" data-name="레이어_1" xmlns="http://www.w3.org/2000/svg" version="1.1" viewBox="0 0 841.89 595.28">
  <!-- Generator: Adobe Illustrator 30.2.1, SVG Export Plug-In . SVG Version: 2.1.1 Build 1)  -->
  <defs>
    <style>
      .st0 {
        fill: #fff;
      }
    </style>
  </defs>
  <g>
    <path class="st0" d="M124.35,326.75H0v-18.26h104.37v-62.42h-55.27v49.1h-19.99v-67.35h84.13c7.15,0,11.1,3.95,11.1,11.1v87.83ZM116.7,394.85c0-27.63,21.22-47.37,50.83-47.37h45.64v18.26h-45.64c-17.76,0-30.59,12.09-30.59,29.11s12.83,29.11,30.59,29.11,30.84-12.09,30.84-29.11c0-6.17-1.97-12.09-4.44-15.79h19.98c2.72,3.95,4.69,8.14,4.69,15.79,0,27.64-21.22,47.37-51.07,47.37s-50.83-19.73-50.83-47.37ZM239.81,326.75c-19.74-1.23-33.31-11.84-38-32.32h-60.94v-18.26h59.21v-29.12h-59.21v-18.26h59.21v-56.5h20.23v101.16c0,19.49,6.17,32.08,19.49,35.03v18.26Z"/>
    <path class="st0" d="M434.74,326.75h-83.39v52.8h-20.23v-52.8h-91.78v-18.26h195.4v18.26ZM297.81,411.63h97.7v18.26h-106.83c-7.15,0-11.1-3.95-11.1-11.11v-63.65h20.23v56.5ZM372.57,224.61h20.23v57.24h-100.42c-7.15,0-11.1-3.94-11.1-11.1v-77.72h111.52v18.26h-91.29v52.55h71.06v-39.23Z"/>
    <path class="st0" d="M550.47,308.49h79.2v18.26h-195.4v-18.26h52.55v-64.89h20.23v64.89h23.19v-64.89h20.23v64.89ZM587.24,278.39h-20.23v-72.04h-92.03v-18.26h101.16c7.15,0,11.1,3.95,11.1,11.11v79.2Z"/>
    <path class="st0" d="M629.19,326.75v-18.26h75.25v-29.36c-21.71-3.95-37.01-20.72-37.01-42.19,0-10.86,3.7-20.48,10.36-27.88h-29.85v-18.26h56.25v-37.75h20.23v37.75h55.27v18.26h-65.38c-15.3,0-26.64,11.1-26.65,26.14,0,14.44,12.27,26.44,26.72,26.41,15.26-.04,26.57-11.13,26.57-26.4,0-4.69-1.23-9.62-2.96-12.83h19.49c2.22,3.7,3.7,8.63,3.7,14.55,0,21.47-15.05,38-36.51,41.95v29.6h58.72c9.15,0,13.45-3.1,16.06-8.37,1.99-4.02,2.69-8.57,2.69-13.06v-114.76h20.23v101.9c0,21.22-2.13,33.11-7.65,39.48-4.19,8.14-13.32,13.07-27.39,13.07h-158.15Z"/>
  </g>
  <g>
    <path class="st0" d="M464.26,416.29l-8.85-31.76h-.33l-.26,31.76h-12.08l3.04-48.99h13.54l10.37,34h.33l10.43-34h13.54l3.04,48.99h-12.08l-.26-31.76h-.33l-8.85,31.76h-11.22Z"/>
    <path class="st0" d="M513.12,407.9l-14.2-27.93h13.07l7.13,14.92,6.21-14.92h12.81l-20.53,46.22-11.49-3.23,7-15.05Z"/>
    <path class="st0" d="M573.93,379.97v36.31h-11.55v-2.11c-1.65,1.39-4.56,2.71-7.72,2.97h-.86c-8.85,0-12.74-5.61-12.74-14.33v-22.84h11.55v17.89c0,6.67,1.98,8.19,4.62,8.12,2.31-.07,3.76-.73,5.15-2.25v-23.77h11.55Z"/>
    <path class="st0" d="M579.29,416.29v-36.31h11.55v2.11c1.65-1.39,4.95-2.71,8.12-2.97h1.06c8.85,0,12.94,5.94,13.01,14.99v22.18h-11.55v-17.23c0-7.59-1.85-8.91-5.08-8.78-2.51.13-3.63.79-5.55,2.25v23.77h-11.55Z"/>
    <path class="st0" d="M655.42,410.01c0,6.8-.92,11.36-6.21,15.12-4.09,2.77-9.97,3.37-15.85,3.1-4.03-.2-9.24-1.39-14.13-4.23l4.75-8.98c4.56,2.58,8.85,3.96,13.93,3.43,4.42-.53,5.94-3.1,5.94-5.48v-1.58c-1.72,1.85-5.48,3.1-9.31,3.1-7.79,0-17.17-5.22-16.77-17.1.46-13.07,8.32-18.75,17.43-18.29,3.83.13,6.73,1.52,8.65,3.43v-2.58h11.55v30.04ZM636.33,404.73c4.75-.07,7.33-3.17,7.33-7.26,0-5.74-3.37-8.38-7.33-8.58-3.24-.2-7.06,1.92-7.33,7.99-.26,5.41,3.24,7.92,7.33,7.86Z"/>
    <path class="st0" d="M660.77,416.29v-36.31h11.16v2.25c2.91-2.05,5.55-2.84,8.78-3.17h.73c4.49,0,7.53,1.58,9.31,4.16,3.04-2.31,7.46-4.16,10.1-4.16h1.12c8.45,0,12.68,5.22,12.68,14.06v23.17h-10.96v-17.23c0-7.26-1.91-8.91-5.02-8.78-2.25.07-3.5.66-5.02,1.98.07.59.07,1.25.07,1.85v22.18h-10.89v-17.23c0-6.8-1.92-8.91-5.08-8.78-2.58.07-3.96.92-5.81,2.44v23.57h-11.16Z"/>
    <path class="st0" d="M738.68,417.15c-11.55,0-19.74-7.59-19.74-19.08s8.91-19.08,19.74-19.08,19.74,7.13,19.74,19.08-8.19,19.08-19.74,19.08ZM738.55,406.71c4.42,0,8.45-2.84,8.45-8.65s-4.03-8.65-8.45-8.65-8.19,3.1-8.19,8.65,3.9,8.65,8.19,8.65Z"/>
    <path class="st0" d="M781.41,417.15c-11.55,0-19.74-7.59-19.74-19.08s8.91-19.08,19.74-19.08,19.74,7.13,19.74,19.08-8.19,19.08-19.74,19.08ZM781.27,406.71c4.42,0,8.45-2.84,8.45-8.65s-4.03-8.65-8.45-8.65-8.19,3.1-8.19,8.65,3.9,8.65,8.19,8.65Z"/>
    <path class="st0" d="M805.44,416.29v-36.31h11.55v2.11c1.65-1.39,4.95-2.71,8.12-2.97h1.06c8.85,0,12.94,5.94,13.01,14.99v22.18h-11.55v-17.23c0-7.59-1.85-8.91-5.08-8.78-2.51.13-3.63.79-5.55,2.25v23.77h-11.55Z"/>
  </g>
</svg>